<svg width="76" height="76" viewBox="0 0 76 76" fill="none" xmlns="http://www.w3.org/2000/svg">
<circle cx="38" cy="38" r="38" fill="#FFE6CA"/>
<path d="M36.2933 21.4354H39.7552C40.1259 21.4354 40.4262 21.1526 40.4262 20.8038C40.4262 20.455 40.1259 20.1722 39.7552 20.1722H36.2933C35.9226 20.1722 35.6223 20.4551 35.6223 20.8038C35.6223 21.1526 35.9226 21.4354 36.2933 21.4354Z" fill="black"/>
<path d="M57.981 33.0542L55.672 24.1005C55.6491 24.012 55.0874 21.9202 52.8794 21.037C51.2812 20.3978 46.2267 18.5918 44.9612 18.1408C44.8459 18.0529 44.6991 18 44.5392 18H44.4431H31.5571C31.5356 18 31.5143 18.0011 31.4929 18.003C31.4837 18.0039 31.4746 18.0054 31.4655 18.0066C31.4538 18.008 31.4421 18.0095 31.4304 18.0116C31.4195 18.0136 31.4088 18.0162 31.3981 18.0186C31.3886 18.0208 31.3789 18.023 31.3694 18.0255C31.3583 18.0285 31.3475 18.032 31.3365 18.0355C31.331 18.0374 31.3253 18.0388 31.3197 18.0407C31.0591 18.1334 24.9139 20.3197 23.1206 21.037C20.9978 21.8863 20.3971 23.8516 20.3336 24.0805C20.3336 24.0805 20.3336 24.0806 20.3335 24.0807C20.3324 24.085 20.3315 24.0884 20.3306 24.0914C20.3294 24.0955 20.3286 24.0988 20.3282 24.1004L18.6873 30.4633C18.6873 30.4633 18.6873 30.4633 18.6873 30.4634L18.0191 33.0543C17.9401 33.3602 18.1126 33.674 18.4235 33.7902L25.0201 36.2566V54.8009V57.3684C25.0201 57.7173 25.3205 58 25.6911 58H50.3089C50.6796 58 50.9799 57.7173 50.9799 57.3684V54.8009V42.7756C50.9799 42.4268 50.6796 42.1441 50.3089 42.1441C49.9381 42.1441 49.6378 42.4269 49.6378 42.7756V54.1692H33.1457C32.775 54.1692 32.4747 54.452 32.4747 54.8008C32.4747 55.1496 32.775 55.4323 33.1457 55.4323H49.6379V56.7368H26.3623V55.4323H30.9089C31.2797 55.4323 31.58 55.1495 31.58 54.8008C31.58 54.4519 31.2797 54.1692 30.9089 54.1692H26.3623V35.8278V33.1195V28.2255C26.3623 28.1102 26.3288 27.9973 26.2655 27.8987L22.8813 22.6311C23.0998 22.4659 23.353 22.3167 23.6458 22.1996C25.0196 21.6501 29.1393 20.1709 30.9382 19.5279C31.3698 23.2605 34.45 26.2623 38.0482 26.2623C41.6358 26.2623 44.7088 23.2781 45.1546 19.5609C46.9986 20.2202 51.0037 21.6592 52.3546 22.1995C52.6473 22.3166 52.9005 22.4658 53.1191 22.631L49.7349 27.8985C49.6716 27.9971 49.6382 28.1102 49.6382 28.2253V33.1194V35.8277V40.6703C49.6382 41.0192 49.9386 41.3019 50.3092 41.3019C50.6799 41.3019 50.9802 41.0192 50.9802 40.6703V36.2564L57.5768 33.79C57.8874 33.6739 58.0598 33.3601 57.981 33.0542ZM25.0202 34.8973L19.461 32.8187L19.806 31.4812L25.0201 33.5395V34.8973H25.0202ZM25.0202 28.4015V32.1697L20.1266 30.238L21.6319 24.4012C21.6338 24.3941 21.7252 24.0684 21.9717 23.6564L25.0202 28.4015ZM38.0482 24.9991C35.3958 24.9991 32.5666 22.7206 32.2563 19.2631H43.8402C43.5297 22.7207 40.7005 24.9991 38.0482 24.9991ZM50.9801 28.4015L54.0287 23.6563C54.1901 23.926 54.2852 24.1587 54.3316 24.2884C54.3317 24.2887 54.3319 24.2891 54.3321 24.2895C54.3365 24.3018 54.3403 24.313 54.3438 24.3233C54.3445 24.3252 54.3452 24.3273 54.3458 24.3291C54.3486 24.3373 54.3511 24.3447 54.3532 24.3515C54.3541 24.3541 54.3551 24.357 54.3558 24.3594C54.3576 24.3649 54.3591 24.3698 54.3604 24.3742C54.3611 24.3762 54.3618 24.3787 54.3624 24.3805C54.3634 24.384 54.3643 24.3867 54.3649 24.3892C54.3653 24.3907 54.366 24.3927 54.3663 24.3939C54.367 24.3961 54.3675 24.3981 54.3676 24.3984L55.8736 30.2381L50.98 32.1698V28.4015H50.9801ZM50.9801 34.8973V33.5395L56.1942 31.4812L56.5391 32.8188L50.9801 34.8973Z" fill="black"/>
</svg>
