<svg width="76" height="76" viewBox="0 0 76 76" fill="none" xmlns="http://www.w3.org/2000/svg">
<circle cx="38" cy="38" r="38" fill="#FFE6CA"/>
<g clip-path="url(#clip0_202:360)">
<path d="M52.0265 47.3369C50.4077 48.1072 48.5868 48.4795 46.7611 48.4144C45.9692 48.386 45.131 48.1895 44.1985 47.8134C43.7297 47.6244 43.3278 47.4369 42.97 47.2403C40.7273 46.0082 38.2781 45.0037 35.5667 45.9903C34.7608 46.2834 34.0174 46.6944 33.2986 47.0917L33.0293 47.2403C32.6714 47.4369 32.2696 47.6243 31.8008 47.8134C30.8684 48.1895 30.0301 48.386 29.2382 48.4144C27.0828 48.4914 24.979 47.9691 23.1529 46.9036C21.6876 46.0484 20.4936 44.8671 19.3962 43.7305C19.2263 43.5545 19.147 43.3147 19.1784 43.0723C19.2101 42.8283 19.349 42.6151 19.5599 42.4872C20.2154 42.0896 20.9186 41.693 21.6498 41.3086C21.9362 41.1579 22.0463 40.8036 21.8957 40.5173C21.7451 40.231 21.3909 40.1209 21.1044 40.2713C20.3521 40.6669 19.628 41.0754 18.9521 41.4854C18.4349 41.7991 18.0938 42.3225 18.0162 42.9217C17.9388 43.5194 18.1345 44.1108 18.5531 44.5444C19.7073 45.7401 20.9677 46.9852 22.5621 47.9157C24.45 49.0174 26.6048 49.5938 28.8211 49.5938C28.9738 49.5938 29.1269 49.591 29.2801 49.5855C30.2104 49.5522 31.1782 49.328 32.239 48.9003C32.7514 48.6937 33.1945 48.4866 33.5935 48.2674C33.6842 48.2176 33.7748 48.1674 33.8655 48.1173C34.5762 47.7245 35.2475 47.3534 35.9673 47.0916C38.1134 46.3107 40.0933 46.9969 42.4057 48.2674C42.8047 48.4866 43.2477 48.6937 43.7602 48.9003C44.821 49.328 45.7888 49.5522 46.719 49.5855C48.7318 49.658 50.7417 49.2461 52.53 48.3952C52.8222 48.256 52.9463 47.9065 52.8073 47.6143C52.6683 47.322 52.3186 47.1978 52.0265 47.3369Z" fill="black"/>
<path d="M57.9833 42.9217C57.9057 42.3226 57.5646 41.799 57.0475 41.4853C52.2407 38.5698 46.9628 36.8739 45.8044 36.5201V34.446C45.8044 30.0129 42.1978 26.4062 37.7647 26.4062C33.3315 26.4062 29.7249 30.0129 29.7249 34.446V36.0489V36.049V36.6683C28.6065 37.0279 26.2648 37.833 23.5695 39.064C23.2752 39.1985 23.1456 39.5461 23.28 39.8405C23.3785 40.0559 23.5911 40.1831 23.8134 40.1831C23.8948 40.1831 23.9776 40.166 24.0564 40.13C26.4132 39.0535 28.5298 38.2992 29.7249 37.9025V38.5452C29.7249 39.0051 30.0163 39.415 30.4497 39.5651C31.2912 39.8565 33.6878 40.5387 37.7589 40.5791H37.7647H37.7705C41.8415 40.5387 44.2382 39.8565 45.0794 39.5651C45.5131 39.415 45.8044 39.0051 45.8044 38.5452V37.7493C47.4001 38.2604 52.1762 39.9012 56.4397 42.4873C56.6505 42.6151 56.7895 42.8284 56.8212 43.0723C56.8525 43.3147 56.7732 43.5546 56.6034 43.7305C55.7426 44.622 55.002 45.3471 54.1848 45.9883C53.9302 46.1881 53.8858 46.5564 54.0855 46.811C54.2011 46.9583 54.3732 47.0352 54.5469 47.0352C54.6735 47.0352 54.801 46.9944 54.9082 46.9103C55.7781 46.2276 56.552 45.4708 57.4464 44.5444C57.8651 44.1108 58.0608 43.5194 57.9833 42.9217ZM44.6326 35.6062C44.1483 35.7289 43.5451 35.8374 42.8313 35.9297C42.5104 35.9713 42.2838 36.2651 42.3254 36.586C42.367 36.907 42.6615 37.133 42.9816 37.092C43.6071 37.011 44.1592 36.9169 44.6326 36.8107V38.4794C43.7928 38.7626 41.5598 39.369 37.7647 39.4073C33.9698 39.369 31.7367 38.7626 30.8967 38.4794V37.0042V36.8107C33.4715 37.3882 37.5695 37.4247 37.7604 37.426H37.7688C37.8126 37.4257 38.8573 37.4174 40.2315 37.3377C40.5546 37.3189 40.8013 37.0418 40.7825 36.7188C40.7638 36.3957 40.4873 36.1482 40.1636 36.1678C38.8642 36.2432 37.8386 36.2535 37.7647 36.2541C37.6039 36.2526 33.2587 36.2066 30.8967 35.6064V34.4459C30.8967 30.659 33.9777 27.578 37.7647 27.578C41.5516 27.578 44.6326 30.659 44.6326 34.4459V35.6062Z" fill="black"/>
</g>
<defs>
<clipPath id="clip0_202:360">
<rect width="40" height="40" fill="white" transform="translate(18 18)"/>
</clipPath>
</defs>
</svg>
