<svg width="76" height="76" viewBox="0 0 76 76" fill="none" xmlns="http://www.w3.org/2000/svg">
<circle cx="38" cy="38" r="38" fill="#FFE6CA"/>
<path d="M50.3375 25.0462L48.8019 21.2846V18.9781C48.8019 18.4388 48.363 18 47.8235 18H34.7046C34.3808 18 34.1183 18.2625 34.1183 18.5862C34.1183 18.9097 34.3808 19.1722 34.7046 19.1722H47.6297V20.8247H42.4728V20.5589C42.4728 20.1494 42.1399 19.8161 41.7303 19.8161H39.8514C39.4421 19.8161 39.1089 20.1494 39.1089 20.5589V20.8247H36.5628V20.5589C36.5628 20.1494 36.2296 19.8161 35.82 19.8161H33.9413C33.5318 19.8161 33.1985 20.1494 33.1985 20.5589V20.8247H28.042V19.1722H31.1166C31.4404 19.1722 31.7026 18.9097 31.7026 18.5862C31.7026 18.2625 31.4404 18 31.1166 18H27.8479C27.3083 18 26.8698 18.4388 26.8698 18.9781V21.2837L25.3336 25.0462C25.1123 25.5882 25 26.1604 25 26.746V53.8478C25 54.395 25.3107 54.8701 25.7642 55.1085V56.4573C25.7642 57.3079 26.4563 58 27.3068 58H33.1198C33.9703 58 34.6625 57.3079 34.6625 56.4573V55.0871C35.0824 54.85 35.3714 54.4066 35.3879 53.8945L36.5579 45.6224L37.8357 35.7438L38.9111 44.0596C38.9526 44.3806 39.2465 44.6074 39.5676 44.5656C39.8886 44.524 40.1154 44.2302 40.0739 43.9094L38.4985 31.7299C38.4546 31.3923 38.176 31.1476 37.8357 31.1476C37.4951 31.1476 37.2165 31.3926 37.1729 31.7302L35.3961 45.4652L34.2221 53.7657C34.2181 53.7932 34.2163 53.8203 34.2163 53.8478C34.2163 53.9863 34.1037 54.0992 33.9651 54.0992H26.4236C26.2851 54.0992 26.1722 53.9866 26.1722 53.8478V26.746C26.1722 26.313 26.2552 25.89 26.4191 25.4893L27.8445 21.9972H33.1985V27.4528C33.1985 28.1212 33.7424 28.665 34.4107 28.665H35.3503C36.0187 28.665 36.5625 28.1212 36.5625 27.4528V21.9972H39.1086V27.4528C39.1086 28.1212 39.6524 28.665 40.321 28.665H41.2607C41.929 28.665 42.4728 28.1212 42.4728 27.4528V21.9972H47.8265L49.2523 25.4893C49.4159 25.89 49.4989 26.313 49.4989 26.746V53.8478C49.4989 53.9863 49.3863 54.0992 49.2474 54.0992H41.7062C41.5677 54.0992 41.4548 53.9866 41.4548 53.8478C41.4548 53.8203 41.4529 53.7928 41.449 53.7657L40.5585 47.4696C40.5133 47.1492 40.217 46.9264 39.8959 46.9713C39.5755 47.0167 39.3524 47.3134 39.3979 47.6338L40.2832 53.8945C40.3012 54.4474 40.6369 54.9205 41.1127 55.1399V56.4573C41.1127 57.3079 41.8045 58 42.655 58H48.468C49.3188 58 50.0107 57.3079 50.0107 56.4573V55.0474C50.4071 54.7944 50.6711 54.3519 50.6711 53.8478V26.746C50.6711 26.1601 50.5588 25.5882 50.3375 25.0462ZM33.4903 55.2714V56.4573C33.4903 56.6615 33.324 56.8278 33.1198 56.8278H27.3068C27.1027 56.8278 26.9363 56.6615 26.9363 56.4573V55.2714H33.4903ZM35.3903 27.4528C35.3903 27.4748 35.3723 27.4928 35.3503 27.4928H34.4107C34.3887 27.4928 34.3707 27.4748 34.3707 27.4528V20.9883H35.3903V27.4528ZM41.3007 27.4528C41.3007 27.4748 41.2827 27.4928 41.2604 27.4928H40.321C40.2988 27.4928 40.2808 27.4748 40.2808 27.4528V20.9883H41.3004V27.4528H41.3007ZM48.8385 56.4573C48.8385 56.6615 48.6725 56.8278 48.4683 56.8278H42.6553C42.4509 56.8278 42.2849 56.6615 42.2849 56.4573V55.2714H48.8385V56.4573Z" fill="black"/>
</svg>
