<svg width="76" height="76" viewBox="0 0 76 76" fill="none" xmlns="http://www.w3.org/2000/svg">
<circle cx="38" cy="38" r="38" fill="#FFE6CA"/>
<path d="M33.0293 52.4874L35.3182 48.3253C35.8715 47.3191 35.6325 46.056 34.75 45.3216C33.1882 44.0181 31.5657 43.5103 28.9633 43.5103C27.6819 43.5103 26.3394 43.5985 24.9735 43.7723C23.1344 44.0065 22.0273 45.9121 22.719 47.6317L24.4207 51.9292C24.7483 52.7565 25.5351 53.2911 26.425 53.2911H31.6724C32.2382 53.2911 32.7584 52.9827 33.0293 52.4874ZM25.5101 51.4977L23.8187 47.2262L23.807 47.1969C23.3993 46.1832 24.0475 45.0714 25.1214 44.9349C26.4384 44.7672 27.731 44.6822 28.9633 44.6822C31.3197 44.6822 32.6374 45.0849 33.9991 46.2213C33.9994 46.2215 33.9996 46.2217 33.9999 46.222C34.4523 46.5981 34.5748 47.2453 34.2912 47.7606L32.0017 51.924C31.9358 52.0444 31.8096 52.1192 31.6723 52.1192H26.4248C26.0187 52.1192 25.6596 51.8752 25.5101 51.4977Z" fill="black"/>
<path d="M44.3279 53.2911H49.5752C50.4652 53.2911 51.2519 52.7565 51.5796 51.9291L53.2704 47.6592L53.2804 47.6342C53.9743 45.9089 52.8636 44.0062 51.0268 43.7723C49.6607 43.5985 48.3183 43.5103 47.0369 43.5103C44.4345 43.5103 42.8121 44.0181 41.2502 45.3215C40.3677 46.056 40.1287 47.3192 40.682 48.3253L42.9703 52.4863C43.2419 52.9827 43.7621 53.2911 44.3279 53.2911ZM42.0002 46.2219C42.0005 46.2217 42.0008 46.2214 42.0011 46.2212C43.3628 45.0849 44.6805 44.6821 47.0369 44.6821C48.269 44.6821 49.5616 44.7671 50.8788 44.9348C51.955 45.0717 52.5998 46.1858 52.1936 47.1956L50.4901 51.4975C50.3405 51.8751 49.9814 52.1191 49.5752 52.1191H44.3279C44.1905 52.1191 44.0643 52.0442 43.9977 51.9226L41.7088 47.7605C41.4254 47.2452 41.548 46.5981 42.0002 46.2219Z" fill="black"/>
<path d="M56.8542 42.5097C56.705 42.4667 56.5295 42.4177 56.332 42.3648L53.3271 38.0513C53.1422 37.7857 52.7771 37.7206 52.5114 37.9054C52.246 38.0904 52.1806 38.4555 52.3656 38.7211L54.6147 41.9498C53.932 41.8019 53.1379 41.6494 52.2649 41.516L48.4421 34.8831C47.6951 33.5872 46.1186 32.976 44.6937 33.4296C44.1246 33.6108 43.5269 33.2587 43.4088 32.674C43.2833 32.0535 43.758 31.4745 44.3901 31.4745C46.2232 31.4745 47.9431 32.3724 48.9908 33.8765L50.8025 36.4773C50.9874 36.7427 51.3526 36.8079 51.6182 36.6231C51.8837 36.4381 51.949 36.0729 51.7641 35.8074L49.9524 33.2067C48.6856 31.3883 46.6063 30.3026 44.3901 30.3026C43.016 30.3026 41.9883 31.5614 42.2601 32.9063C42.5165 34.1733 43.8179 34.9381 45.0491 34.5463C45.953 34.2588 46.9529 34.6462 47.4268 35.4682L50.8014 41.3233C49.6278 41.1908 48.3572 41.104 47.0368 41.104C43.8486 41.104 41.7255 41.7907 39.7084 43.4743C38.6865 44.3271 37.3136 44.3271 36.2917 43.4743C34.2746 41.7907 32.1514 41.104 28.9632 41.104C27.6428 41.104 26.3722 41.1908 25.1987 41.3233L28.5732 35.4682C29.0469 34.6463 30.047 34.2588 30.9508 34.5463C32.1796 34.9376 33.4831 34.1754 33.7399 32.9063C34.0122 31.5593 32.982 30.3026 31.6099 30.3026C29.3938 30.3026 27.3144 31.3882 26.0475 33.2067L19.668 42.3648C19.4706 42.4177 19.2952 42.4667 19.1459 42.5097C18.4712 42.7039 18 43.3304 18 44.0332V45.5172C18 46.5104 18.7691 46.8884 19.0975 47.0497C19.7669 47.3781 20.241 47.9098 20.493 48.5462L22.1833 52.8149C22.8767 54.566 24.5417 55.6974 26.425 55.6974H27.6965C28.0202 55.6974 28.2825 55.4352 28.2825 55.1115C28.2825 54.7878 28.0202 54.5256 27.6965 54.5256H26.425C25.0254 54.5256 23.7882 53.6848 23.2729 52.3835L21.5826 48.1148C21.2296 47.2233 20.557 46.4588 19.6143 45.998C19.2823 45.8348 19.1719 45.7425 19.1719 45.5172V44.0332C19.1719 43.8497 19.2944 43.6864 19.4701 43.6358C20.8903 43.2269 24.6583 42.2759 28.9632 42.2759C31.8877 42.2759 33.7318 42.8641 35.5408 44.374C36.9888 45.5825 39.0113 45.5825 40.4592 44.374C42.2682 42.8641 44.1124 42.2759 47.0368 42.2759C50.6682 42.2759 53.9177 42.9527 55.6981 43.4098C55.6997 43.4102 55.7013 43.4107 55.7029 43.4111C56.0309 43.4954 56.3088 43.5721 56.5299 43.6358C56.7054 43.6863 56.828 43.8497 56.828 44.0332V45.5172C56.828 45.8004 56.6303 45.8708 56.3002 46.0406C55.4413 46.4808 54.7727 47.2174 54.4172 48.1148L52.7269 52.3836C52.2117 53.6848 50.9744 54.5256 49.5749 54.5256H44.3275C43.3102 54.5256 42.3751 53.9712 41.887 53.0788L39.8591 49.3715C39.4821 48.6822 38.7873 48.2707 38.0006 48.2707H38.0005C37.213 48.2707 36.5177 48.6823 36.1405 49.3715L34.1126 53.0788C33.6245 53.9712 32.6893 54.5256 31.6721 54.5256H30.4307C30.107 54.5256 29.8447 54.7878 29.8447 55.1115C29.8447 55.4352 30.107 55.6974 30.4307 55.6974H31.6721C33.1178 55.6974 34.447 54.9095 35.1407 53.6413L37.1686 49.934C37.3369 49.6264 37.648 49.4426 38.0005 49.4426C38.3522 49.4426 38.6627 49.6264 38.8309 49.934L40.8588 53.6413C41.5526 54.9095 42.8818 55.6974 44.3274 55.6974H49.5748C51.4581 55.6974 53.1231 54.566 53.8164 52.8149L55.5066 48.5462C55.7589 47.9093 56.2334 47.3778 56.9022 47.0497C57.2306 46.8884 57.9997 46.5105 57.9997 45.5172V44.0332C58 43.3303 57.5288 42.7039 56.8542 42.5097ZM27.0092 33.8765C28.057 32.3724 29.7769 31.4745 31.6099 31.4745C32.243 31.4745 32.7166 32.0546 32.5913 32.674C32.5342 32.9565 32.3658 33.1926 32.1174 33.3387C31.8691 33.4847 31.581 33.5172 31.3064 33.4297C29.8814 32.976 28.3049 33.5874 27.558 34.8831L23.7351 41.516C22.8621 41.6494 22.068 41.8019 21.3853 41.9498L27.0092 33.8765Z" fill="black"/>
</svg>
