<svg width="76" height="76" viewBox="0 0 76 76" fill="none" xmlns="http://www.w3.org/2000/svg">
<circle cx="38" cy="38" r="38" fill="#FFE6CA"/>
<path d="M57.3704 37.4861C57.148 36.8946 56.8585 36.3144 56.5053 35.7472C56.8627 29.825 55.489 25.6628 52.419 23.3767C50.1383 21.6785 47.3647 20.8239 44.8095 21.0303C43.6237 21.1263 42.5681 21.4703 41.6721 22.0525C41.4009 22.2287 41.324 22.5913 41.5002 22.8625C41.6764 23.1336 42.0388 23.2106 42.3101 23.0343C43.0414 22.5591 43.9141 22.2776 44.904 22.1974C47.1459 22.0156 49.6942 22.8076 51.7197 24.3158C54.2085 26.1691 55.4394 29.5039 55.389 34.2398C54.9819 33.7695 54.5272 33.3105 54.0257 32.864C52.6157 31.6088 51.0871 30.6851 50.053 30.1312C49.645 29.9126 49.3916 29.4918 49.3916 29.0328V28.5862C49.3916 27.6716 48.6476 26.9276 47.7331 26.9276C46.8186 26.9276 46.0746 27.6716 46.0746 28.5862V29.0051C46.0746 29.4657 45.8241 29.8849 45.4209 30.0994C44.382 30.652 42.8456 31.5744 41.4252 32.8313C41.2456 32.9903 41.0729 33.1511 40.9053 33.3132C40.8628 32.9164 40.8127 32.5269 40.7544 32.1484C40.6871 31.7114 40.6056 31.2625 40.5268 30.8283C40.1522 28.7654 39.765 26.6323 40.694 24.8333C40.8424 24.546 40.7298 24.1928 40.4425 24.0445C40.1552 23.8962 39.802 24.0087 39.6537 24.2961C38.5418 26.4492 38.9653 28.7818 39.3748 31.0375C39.4557 31.4838 39.5323 31.9053 39.5973 32.3268C39.7026 33.0102 39.7799 33.731 39.8304 34.471C39.0347 35.4341 38.4364 36.4427 38.0442 37.4862C38.0334 37.5083 38.0184 37.5402 38.0001 37.5812C37.9817 37.5402 37.9667 37.5083 37.956 37.4862C37.5637 36.4427 36.9654 35.4342 36.1697 34.4711C36.2202 33.7312 36.2975 33.0102 36.4028 32.3269C36.4678 31.9054 36.5443 31.4838 36.6254 31.0375C37.0694 28.5915 37.5727 25.8193 35.8299 23.4687C35.4464 22.9522 34.9915 22.5096 34.478 22.1533C33.5507 21.5098 32.4447 21.132 31.1907 21.0304C28.6355 20.8239 25.8618 21.6786 23.5812 23.3768C20.5101 25.6634 19.1356 29.8258 19.494 35.7482C19.1411 36.3152 18.8517 36.895 18.6296 37.4862C18.5149 37.7227 17.9106 39.0636 18.0113 40.8394C18.1627 43.5084 19.7796 45.3777 21.4058 46.5958C21.8416 48.1455 22.3247 49.5587 22.8813 50.9067C23.4596 52.3071 24.1069 53.7801 25.0956 55.043C26.3294 56.619 28.5621 57.8238 30.8281 57.8238C31.6058 57.8238 32.3877 57.6818 33.1341 57.3643C35.675 56.2832 36.8417 53.6417 37.0862 51.5301C37.1235 51.2089 36.8932 50.9184 36.572 50.8812C36.25 50.8438 35.9602 51.0743 35.9231 51.3954C35.6079 54.1173 34.0389 55.7069 32.6757 56.2869C30.3032 57.2958 27.3726 56.0523 26.0175 54.3213C25.1202 53.175 24.5108 51.7851 23.9635 50.4599C23.5676 49.5011 23.2102 48.5067 22.8803 47.4506C22.9939 47.4746 23.1093 47.4867 23.2245 47.4867C23.71 47.4867 24.1913 47.2768 24.5196 46.8822C25.0994 46.1852 25.0002 45.1283 24.2989 44.5259C23.8508 44.1411 23.2327 43.608 22.8322 43.253C21.7587 42.3014 21.3869 41.4446 21.5062 40.1972C21.5882 39.3404 21.9368 38.428 22.5147 37.5579C22.5365 37.525 22.5592 37.4921 22.5825 37.459C22.7688 37.1948 22.7056 36.8295 22.4413 36.6432C22.1769 36.4569 21.8118 36.5201 21.6255 36.7844C21.5956 36.8268 21.5666 36.869 21.5391 36.9106C20.8552 37.9399 20.4409 39.0378 20.3406 40.0857C20.1848 41.7163 20.6977 42.9255 22.0555 44.1292C22.4617 44.4893 23.0848 45.0267 23.5361 45.4143C23.7553 45.6025 23.7927 45.9252 23.6195 46.1333C23.4595 46.3256 23.1818 46.374 22.9736 46.2462C17.3403 42.7864 19.5902 38.1797 19.6879 37.987C19.6986 37.9662 19.708 37.9449 19.7162 37.9231C20.9803 34.5258 24.5088 32.2297 26.4997 31.1634C27.2888 30.7405 27.7791 29.9242 27.7791 29.0328V28.5862C27.7791 28.3173 27.9979 28.0985 28.2667 28.0985C28.5355 28.0985 28.7543 28.3173 28.7543 28.5862V29.0051C28.7543 29.8996 29.2428 30.715 30.0291 31.1332C32.0375 32.2015 35.5969 34.504 36.8691 37.923C36.8773 37.9448 36.8868 37.9662 36.8974 37.9869C36.9033 37.9985 37.494 39.1655 37.4055 40.7647C37.3278 42.1699 36.7621 43.4401 35.719 44.5614C35.6919 44.5852 35.667 44.6113 35.6449 44.6395C35.101 45.2083 34.4335 45.7385 33.6419 46.2276C33.4406 46.3521 33.185 46.3366 33.0203 46.1898C32.9103 46.0917 32.8505 45.9567 32.8519 45.8097C32.8533 45.6628 32.9154 45.5292 33.0268 45.4336C33.4843 45.0408 34.1165 44.4957 34.5299 44.1292C35.8878 42.9256 36.4006 41.7164 36.2447 40.0859C36.1446 39.038 35.7302 37.9401 35.0463 36.9106C33.9183 35.2127 32.2293 33.7475 29.7309 32.2997C28.8429 31.7852 27.7521 31.8138 26.8837 32.3746C26.0133 32.9366 24.7394 33.8043 23.6144 34.7459C23.3664 34.9534 23.3336 35.3227 23.5411 35.5705C23.7487 35.8185 24.1178 35.8514 24.3658 35.6437C25.4449 34.7406 26.676 33.9024 27.5188 33.3583C28.0157 33.0373 28.6384 33.0199 29.1437 33.3128C31.4806 34.6671 33.0462 36.0162 34.0709 37.5587C34.6485 38.4282 34.997 39.3405 35.0789 40.1973C35.1981 41.4448 34.8265 42.3016 33.7531 43.2531C33.3454 43.6144 32.7183 44.1552 32.2639 44.5453C31.8979 44.8595 31.6855 45.3164 31.6809 45.7989C31.6763 46.2814 31.8805 46.7424 32.2408 47.0638C32.7894 47.5529 33.6186 47.6186 34.2574 47.2238C34.7144 46.9413 35.195 46.6054 35.6632 46.213C35.7675 47.0689 35.8686 47.9434 35.9263 48.7966C35.9473 49.1058 36.2045 49.3425 36.5098 49.3425C36.5232 49.3425 36.5365 49.342 36.55 49.3411C36.8727 49.3193 37.1164 49.0401 37.0946 48.7175C37.0255 47.6966 36.8984 46.6629 36.7755 45.6632C36.7561 45.5052 36.7371 45.3478 36.7179 45.1902C37.2225 44.6187 37.6696 43.9636 37.9998 43.2193C38.3301 43.9636 38.7772 44.6186 39.2817 45.1902C39.2626 45.3477 39.2435 45.505 39.2241 45.663C39.01 47.4054 38.7885 49.2071 38.8675 50.9591C38.9258 52.2509 39.302 53.5655 39.927 54.6607C40.6435 55.9164 41.6597 56.8513 42.8657 57.3644C43.6122 57.682 44.3937 57.824 45.1716 57.824C47.4374 57.8238 49.6705 56.6191 50.9041 55.0432C51.8928 53.7802 52.5402 52.3073 53.1184 50.9069C53.6751 49.5586 54.1582 48.1454 54.5939 46.5959C56.2201 45.3778 57.837 43.5084 57.9884 40.8394C58.0894 39.0635 57.4851 37.7227 57.3704 37.4861ZM30.5789 30.0994C30.1757 29.885 29.9252 29.4657 29.9252 29.0051V28.5862C29.9252 27.6716 29.1812 26.9276 28.2667 26.9276C27.3522 26.9276 26.6082 27.6716 26.6082 28.5862V29.0328C26.6082 29.4918 26.3548 29.9126 25.9469 30.1312C24.9127 30.6851 23.3841 31.6088 21.9741 32.864C21.4723 33.3107 21.0174 33.7699 20.6103 34.2404C20.5594 29.5044 21.7909 26.1695 24.2802 24.3159C26.3056 22.8078 28.8542 22.0161 31.0959 22.1975C32.1414 22.2822 33.0547 22.5909 33.8102 23.1153C34.2189 23.3989 34.582 23.7526 34.8892 24.1664C36.3297 26.1093 35.8942 28.5083 35.473 30.8283C35.3942 31.2625 35.3127 31.7115 35.2454 32.1485C35.187 32.5271 35.137 32.9165 35.0945 33.3134C34.9269 33.1512 34.7542 32.9904 34.5745 32.8314C33.1542 31.5745 31.6178 30.6521 30.5789 30.0994ZM52.0364 50.4599C51.4891 51.7851 50.8798 53.175 49.9824 54.3213C48.6274 56.0523 45.6963 57.2962 43.3243 56.2869C41.1801 55.3747 40.1285 52.9272 40.0373 50.9063C39.9687 49.3844 40.1456 47.7795 40.3365 46.2129C40.8047 46.6052 41.2853 46.9413 41.7423 47.2237C42.3812 47.6185 43.2104 47.5528 43.7588 47.0637C44.1192 46.7423 44.3233 46.2813 44.3188 45.7987C44.3143 45.3163 44.1019 44.8594 43.7359 44.5451C43.2815 44.1551 42.6543 43.6143 42.2467 43.253C41.1733 42.3014 40.8015 41.4446 40.9208 40.1971C41.0027 39.3404 41.3512 38.428 41.9289 37.5585C42.9536 36.016 44.5193 34.6669 46.856 33.3126C47.3614 33.0197 47.984 33.0372 48.4809 33.3582C51.8548 35.5365 53.0647 36.9248 53.4856 37.5585C54.0632 38.428 54.4118 39.3404 54.4938 40.1972C54.613 41.4446 54.2412 42.3014 53.1678 43.253C52.7673 43.608 52.1492 44.1411 51.7012 44.5259C50.9997 45.1282 50.9006 46.1852 51.4804 46.8822C51.8087 47.2769 52.2899 47.4867 52.7754 47.4867C52.8907 47.4867 53.006 47.4745 53.1197 47.4505C52.7897 48.5066 52.4323 49.5011 52.0364 50.4599ZM56.8196 40.773C56.6971 42.9342 55.4208 44.7757 53.0264 46.2463C52.818 46.3743 52.5404 46.3257 52.3805 46.1335C52.2072 45.9252 52.2447 45.6026 52.464 45.4143C52.9152 45.0268 53.5383 44.4893 53.9445 44.1292C55.3023 42.9256 55.8151 41.7164 55.6593 40.0858C55.5592 39.0379 55.1448 37.94 54.4609 36.9106C53.885 36.0439 52.4904 34.5533 49.116 32.3746C48.6609 32.0807 48.1447 31.933 47.6285 31.933C47.1599 31.933 46.6913 32.0549 46.2688 32.2997C43.7704 33.7475 42.0815 35.2127 40.9534 36.9106C40.2696 37.9401 39.8552 39.038 39.7551 40.0858C39.5992 41.7164 40.112 42.9256 41.4699 44.1292C41.8833 44.4957 42.5155 45.0408 42.973 45.4336C43.0844 45.5293 43.1465 45.6629 43.1478 45.8097C43.1492 45.9567 43.0895 46.0917 42.9794 46.1898C42.8149 46.3366 42.5593 46.3521 42.3577 46.2276C39.4212 44.4129 38.644 42.2863 38.582 40.6471C38.5863 40.5007 38.5858 40.3578 38.5814 40.2183C38.6262 38.9579 39.0606 38.0692 39.1023 37.9869C39.113 37.9662 39.1224 37.9448 39.1305 37.923C40.4028 34.5039 43.9621 32.2014 45.9705 31.1332C46.7568 30.7151 47.2453 29.8996 47.2453 29.0051V28.5862C47.2453 28.3173 47.4641 28.0985 47.733 28.0985C48.0018 28.0985 48.2205 28.3173 48.2205 28.5862V29.0328C48.2205 29.9242 48.7107 30.7405 49.5 31.1634C51.4908 32.2297 55.0193 34.5258 56.2835 37.9231C56.2916 37.9449 56.3011 37.9663 56.3118 37.987C56.318 37.9987 56.9106 39.1697 56.8196 40.773Z" fill="black"/>
</svg>
