<svg width="76" height="76" viewBox="0 0 76 76" fill="none" xmlns="http://www.w3.org/2000/svg">
<circle cx="38" cy="38" r="38" fill="#FFE6CA"/>
<g clip-path="url(#clip0_202:368)">
<path d="M38 38.384C38.5641 38.384 39.1092 38.2674 39.6202 38.0373C39.9154 37.9045 40.0469 37.5574 39.914 37.2623C39.7812 36.9671 39.4341 36.8355 39.139 36.9685C38.7804 37.1299 38.3972 37.2117 38 37.2117C36.4683 37.2117 35.2221 35.9655 35.2221 34.4338C35.2221 32.902 36.4683 31.6558 38 31.6558C39.5317 31.6558 40.7779 32.902 40.7779 34.4338C40.7779 34.7341 40.7305 35.0291 40.6369 35.3108C40.5347 35.6181 40.701 35.9498 41.0083 36.0519C41.3153 36.154 41.6472 35.9877 41.7493 35.6805C41.8826 35.2793 41.9502 34.8599 41.9502 34.4338C41.9502 32.2556 40.1781 30.4835 38 30.4835C35.8219 30.4835 34.0498 32.2556 34.0498 34.4338C34.0498 36.6118 35.8219 38.384 38 38.384Z" fill="black"/>
<path d="M38.0001 30.2214C38.3238 30.2214 38.5862 29.959 38.5862 29.6353V29.0537C38.5862 28.73 38.3238 28.4675 38.0001 28.4675C37.6764 28.4675 37.4139 28.73 37.4139 29.0537V29.6353C37.4139 29.9591 37.6764 30.2214 38.0001 30.2214Z" fill="black"/>
<path d="M38.0001 38.6459C37.6764 38.6459 37.4139 38.9083 37.4139 39.232V39.8136C37.4139 40.1373 37.6764 40.3998 38.0001 40.3998C38.3238 40.3998 38.5862 40.1373 38.5862 39.8136V39.232C38.5862 38.9083 38.3238 38.6459 38.0001 38.6459Z" fill="black"/>
<path d="M34.1925 31.4553C34.307 31.5697 34.457 31.627 34.607 31.627C34.757 31.627 34.907 31.5698 35.0214 31.4553C35.2503 31.2264 35.2503 30.8552 35.0214 30.6264L34.6102 30.2151C34.3813 29.9862 34.0101 29.9862 33.7813 30.2151C33.5524 30.444 33.5524 30.8152 33.7813 31.044L34.1925 31.4553Z" fill="black"/>
<path d="M41.8075 37.4121C41.5785 37.1832 41.2075 37.1833 40.9786 37.4121C40.7497 37.641 40.7497 38.0122 40.9786 38.2411L41.3898 38.6524C41.5043 38.7668 41.6543 38.8241 41.8043 38.8241C41.9543 38.8241 42.1043 38.7669 42.2188 38.6525C42.4477 38.4236 42.4477 38.0524 42.2188 37.8235L41.8075 37.4121Z" fill="black"/>
<path d="M33.7878 34.4338C33.7878 34.1101 33.5254 33.8477 33.2017 33.8477H32.6201C32.2964 33.8477 32.0339 34.1101 32.0339 34.4338C32.0339 34.7575 32.2964 35.0199 32.6201 35.0199H33.2017C33.5254 35.0199 33.7878 34.7575 33.7878 34.4338Z" fill="black"/>
<path d="M42.2122 34.4338C42.2122 34.7575 42.4746 35.0199 42.7983 35.0199H43.3799C43.7036 35.0199 43.966 34.7575 43.966 34.4338C43.966 34.1101 43.7036 33.8477 43.3799 33.8477H42.7983C42.4746 33.8477 42.2122 34.1101 42.2122 34.4338Z" fill="black"/>
<path d="M34.1925 37.4121L33.7813 37.8235C33.5524 38.0524 33.5524 38.4235 33.7813 38.6524C33.8958 38.7668 34.0457 38.824 34.1957 38.824C34.3457 38.824 34.4957 38.7668 34.6102 38.6523L35.0215 38.241C35.2504 38.0121 35.2503 37.641 35.0215 37.4121C34.7925 37.1832 34.4214 37.1833 34.1925 37.4121Z" fill="black"/>
<path d="M41.393 31.6268C41.543 31.6268 41.693 31.5696 41.8074 31.4551L42.2187 31.0439C42.4476 30.815 42.4476 30.4438 42.2187 30.215C41.9898 29.9861 41.6186 29.9861 41.3898 30.215L40.9786 30.6263C40.7497 30.8552 40.7497 31.2263 40.9786 31.4551C41.093 31.5696 41.243 31.6268 41.393 31.6268Z" fill="black"/>
<path d="M42.4025 43.9735C42.4025 43.6498 42.1401 43.3873 41.8163 43.3873H34.1834C33.8597 43.3873 33.5973 43.6498 33.5973 43.9735C33.5973 44.2972 33.8597 44.5596 34.1834 44.5596H41.8163C42.1401 44.5596 42.4025 44.2972 42.4025 43.9735Z" fill="black"/>
<path d="M35.1906 45.4736C34.8669 45.4736 34.6045 45.7361 34.6045 46.0598C34.6045 46.3835 34.8669 46.6459 35.1906 46.6459H40.8091C41.1328 46.6459 41.3952 46.3835 41.3952 46.0598C41.3952 45.7361 41.1328 45.4736 40.8091 45.4736H35.1906Z" fill="black"/>
<path d="M47.1575 18.3683C46.9357 18.1307 46.6392 18 46.3225 18H46.3224H29.6776H29.6775C29.3608 18 29.0642 18.1307 28.8424 18.3683C28.6053 18.6221 28.4833 18.972 28.5077 19.3282L28.5701 20.2395L29.0373 27.0679C29.0374 27.0685 29.0373 27.0691 29.0373 27.0698L29.2263 29.8302L30.1951 43.9875C30.1967 44.0107 30.1996 44.0338 30.204 44.0567L30.446 45.3317C30.5063 45.6497 30.813 45.8584 31.1311 45.7983C31.4491 45.738 31.658 45.4312 31.5977 45.1131L31.3623 43.8725L31.2632 42.4238H44.7367L44.6376 43.8725L43.5326 49.6958H32.4673L32.0978 47.7485C32.0375 47.4305 31.7306 47.2217 31.4126 47.2819C31.0946 47.3423 30.8857 47.649 30.9461 47.9671L31.3958 50.3371V56.5586C31.3958 57.3534 32.0425 58 32.8373 58H43.1626C43.9574 58 44.6041 57.3534 44.6041 56.5586V50.3371L45.7958 44.0567C45.8002 44.0338 45.8031 44.0106 45.8047 43.9874L46.7727 29.8415L46.9625 27.0698C46.9626 27.0692 46.9625 27.0686 46.9625 27.0679L47.4355 20.1565L47.4921 19.3282C47.5166 18.972 47.3946 18.6221 47.1575 18.3683ZM40.2405 56.7982H35.7474V56.3609C35.7474 56.1306 35.9348 55.9433 36.1651 55.9433H39.8228C40.0531 55.9433 40.2404 56.1306 40.2404 56.3609V56.7982H40.2405ZM43.4318 56.5586C43.4318 56.707 43.311 56.8277 43.1626 56.8277H41.4127V56.3609C41.4127 55.4842 40.6995 54.771 39.8228 54.771H36.1651C35.2884 54.771 34.5752 55.4842 34.5752 56.3609V56.8277H32.8373C32.6889 56.8277 32.5681 56.707 32.5681 56.5586V53.9427H43.4318V56.5586ZM43.4318 52.7704H32.5681V50.868H43.4318V52.7704ZM45.8303 26.4436H35.46C35.1363 26.4436 34.8739 26.706 34.8739 27.0297C34.8739 27.3534 35.1363 27.6159 35.46 27.6159H45.75L45.6283 29.3935L44.8165 41.2515H31.1833L30.3747 29.4407L30.2498 27.6158H32.7377C33.0614 27.6158 33.3239 27.3534 33.3239 27.0297C33.3239 26.706 33.0614 26.4435 32.7377 26.4435H30.1696L29.896 22.4447H46.1039L45.8303 26.4436ZM46.2541 20.2499L46.1842 21.2725H29.8157L29.7284 19.9958L29.6773 19.249C29.6746 19.2095 29.6874 19.1838 29.6959 19.1723H46.3038C46.3123 19.1837 46.3251 19.2094 46.3225 19.2487L46.2541 20.2499Z" fill="black"/>
</g>
<defs>
<clipPath id="clip0_202:368">
<rect width="40" height="40" fill="white" transform="translate(18 18)"/>
</clipPath>
</defs>
</svg>
